<svg xmlns="http://www.w3.org/2000/svg" width="265" height="265" fill="none" viewBox="0 0 265 265">
  <path fill="#1E1E1E" d="M127.5 17.887a10 10 0 0 1 10 0l91.758 52.976a10 10 0 0 1 5 8.66v105.953c0 3.573-1.906 6.874-5 8.661L137.5 247.113a9.997 9.997 0 0 1-10 0l-91.758-52.976a10.002 10.002 0 0 1-5-8.661V79.523a10 10 0 0 1 5-8.66L127.5 17.887Z"/>
  <path fill="#fff" d="M127.5 32.887a10 10 0 0 1 10 0l78.768 45.476a10 10 0 0 1 5 8.66v90.954c0 3.572-1.906 6.873-5 8.66L137.5 232.113a9.997 9.997 0 0 1-10 0l-78.768-45.476a10.002 10.002 0 0 1-5-8.661V87.023a10 10 0 0 1 5-8.66L127.5 32.887Z"/>
  <path fill="#1E1E1E" d="M135.99 192.718c-.358 4.95-7.622 4.95-7.98 0l-3.907-54.143a3.996 3.996 0 0 0-1.746-3.023l-44.935-30.456c-4.108-2.784-.476-9.076 3.99-6.91l48.843 23.687a3.995 3.995 0 0 0 3.49 0l48.844-23.687c4.465-2.166 8.097 4.126 3.989 6.91l-44.935 30.456a3.996 3.996 0 0 0-1.746 3.023l-3.907 54.143Z"/>
</svg>
